<svg xmlns="http://www.w3.org/2000/svg" version="1.1" xmlns:xlink="http://www.w3.org/1999/xlink" xmlns:svgjs="http://svgjs.dev/svgjs" width="2000" height="2000" preserveAspectRatio="none" viewBox="0 0 2000 2000"><g mask="url(&quot;#SvgjsMask1347&quot;)" fill="none"><use xlink:href="#SvgjsG1354" transform="translate(0, 0)" fill="rgba(55, 59, 62, 1)"></use><use xlink:href="#SvgjsG1354" transform="translate(0, 387)" fill="rgba(55, 59, 62, 1)"></use><use xlink:href="#SvgjsG1354" transform="translate(0, 774)" fill="rgba(55, 59, 62, 1)"></use><use xlink:href="#SvgjsG1354" transform="translate(0, 1161)" fill="rgba(55, 59, 62, 1)"></use><use xlink:href="#SvgjsG1354" transform="translate(0, 1548)" fill="rgba(55, 59, 62, 1)"></use><use xlink:href="#SvgjsG1354" transform="translate(0, 1935)" fill="rgba(55, 59, 62, 1)"></use><use xlink:href="#SvgjsG1354" transform="translate(387, 0)" fill="rgba(55, 59, 62, 1)"></use><use xlink:href="#SvgjsG1354" transform="translate(387, 387)" fill="rgba(55, 59, 62, 1)"></use><use xlink:href="#SvgjsG1354" transform="translate(387, 774)" fill="rgba(55, 59, 62, 1)"></use><use xlink:href="#SvgjsG1354" transform="translate(387, 1161)" fill="rgba(55, 59, 62, 1)"></use><use xlink:href="#SvgjsG1354" transform="translate(387, 1548)" fill="rgba(55, 59, 62, 1)"></use><use xlink:href="#SvgjsG1354" transform="translate(387, 1935)" fill="rgba(55, 59, 62, 1)"></use><use xlink:href="#SvgjsG1354" transform="translate(774, 0)" fill="rgba(55, 59, 62, 1)"></use><use xlink:href="#SvgjsG1354" transform="translate(774, 387)" fill="rgba(55, 59, 62, 1)"></use><use xlink:href="#SvgjsG1354" transform="translate(774, 774)" fill="rgba(55, 59, 62, 1)"></use><use xlink:href="#SvgjsG1354" transform="translate(774, 1161)" fill="rgba(55, 59, 62, 1)"></use><use xlink:href="#SvgjsG1354" transform="translate(774, 1548)" fill="rgba(55, 59, 62, 1)"></use><use xlink:href="#SvgjsG1354" transform="translate(774, 1935)" fill="rgba(55, 59, 62, 1)"></use><use xlink:href="#SvgjsG1354" transform="translate(1161, 0)" fill="rgba(55, 59, 62, 1)"></use><use xlink:href="#SvgjsG1354" transform="translate(1161, 387)" fill="rgba(55, 59, 62, 1)"></use><use xlink:href="#SvgjsG1354" transform="translate(1161, 774)" fill="rgba(55, 59, 62, 1)"></use><use xlink:href="#SvgjsG1354" transform="translate(1161, 1161)" fill="rgba(55, 59, 62, 1)"></use><use xlink:href="#SvgjsG1354" transform="translate(1161, 1548)" fill="rgba(55, 59, 62, 1)"></use><use xlink:href="#SvgjsG1354" transform="translate(1161, 1935)" fill="rgba(55, 59, 62, 1)"></use><use xlink:href="#SvgjsG1354" transform="translate(1548, 0)" fill="rgba(55, 59, 62, 1)"></use><use xlink:href="#SvgjsG1354" transform="translate(1548, 387)" fill="rgba(55, 59, 62, 1)"></use><use xlink:href="#SvgjsG1354" transform="translate(1548, 774)" fill="rgba(55, 59, 62, 1)"></use><use xlink:href="#SvgjsG1354" transform="translate(1548, 1161)" fill="rgba(55, 59, 62, 1)"></use><use xlink:href="#SvgjsG1354" transform="translate(1548, 1548)" fill="rgba(55, 59, 62, 1)"></use><use xlink:href="#SvgjsG1354" transform="translate(1548, 1935)" fill="rgba(55, 59, 62, 1)"></use><use xlink:href="#SvgjsG1354" transform="translate(1935, 0)" fill="rgba(55, 59, 62, 1)"></use><use xlink:href="#SvgjsG1354" transform="translate(1935, 387)" fill="rgba(55, 59, 62, 1)"></use><use xlink:href="#SvgjsG1354" transform="translate(1935, 774)" fill="rgba(55, 59, 62, 1)"></use><use xlink:href="#SvgjsG1354" transform="translate(1935, 1161)" fill="rgba(55, 59, 62, 1)"></use><use xlink:href="#SvgjsG1354" transform="translate(1935, 1548)" fill="rgba(55, 59, 62, 1)"></use><use xlink:href="#SvgjsG1354" transform="translate(1935, 1935)" fill="rgba(55, 59, 62, 1)"></use></g><defs><mask id="SvgjsMask1347"><rect width="2000" height="2000" fill="#ffffff"></rect></mask><g id="SvgjsG1351"><path d="M8.52 15.76L5.37 13.55l3.14-4.49L19.12 6.02 6.04-3.14l0.9 11.04-3.18 4.53-3.09-2.17c-1.07-0.75-2.18 0.84-1.11 1.6L7.4 17.35c1.06 0.74 2.17-0.85 1.12-1.59zM9.85 5.4c0.39-0.56 1.16-0.7 1.72-0.31 0.56 0.39 0.7 1.17 0.3 1.73-0.39 0.56-1.16 0.7-1.72 0.3-0.56-0.39-0.7-1.16-0.3-1.72z"></path></g><g id="SvgjsG1353"><path d="M9.64 6.85c0.6 0.67 0.71 1.67 0.2 2.4l-3.95 5.65c-0.12 0.17-0.37 0.21-0.55 0.09L2.1 12.72a0.4 0.4 0 0 1-0.11-0.55L5.94 6.53c0.52-0.74 1.49-0.98 2.33-0.64L10.04 3.36l1.37 0.96L9.64 6.85zM10.82 2.25l1.37 0.96-0.38 0.54-1.37-0.96L10.82 2.25z"></path></g><g id="SvgjsG1352"><path d="M12.67 15.28L-0.44 6.11C-1.1 7.05-0.69 8-0.11 8.41L10.39 15.76c0.7 0.48 1.69 0.36 2.28-0.48zM14.86 6.85L7.04 1.37l-3.59 5.13c-0.49 0.7-0.27 1.67 0.37 2.13l5.08 3.55c0.73 0.51 1.66 0.25 2.1-0.39l0.3-0.43c1.45 1.01 3.26 0.66 4.15-0.6 0.9-1.29 0.62-3.07-0.59-3.91zM11.98 10.38L13.92 7.62l0.27 0.19c0.99 0.69 0.65 1.85 0.33 2.31-0.51 0.73-1.55 1.06-2.54 0.26z"></path></g><g id="SvgjsG1350"><path d="M14.19 5.88c-0.41 0.07-0.8-0.07-1.16-0.32-0.46-0.32-0.74-0.8-0.74-1.34-0.49 0.2-1.04 0.09-1.5-0.23-0.46-0.32-0.74-0.8-0.73-1.34-0.5 0.2-1.04 0.09-1.51-0.23-0.34-0.24-0.6-0.53-0.69-0.91l0.73-1.42c0.02 0.5 0.25 0.98 0.69 1.28 0.47 0.33 1.05 0.39 1.55 0.19-0.01 0.53 0.23 1.06 0.69 1.38 0.47 0.33 1.05 0.39 1.54 0.19-0.01 0.53 0.24 1.06 0.7 1.38 0.47 0.33 1.05 0.37 1.55 0.17l-1.12 1.2z"></path><path d="M6.91 17L18.11 5.32 16.74 4.37 6.69 14.79 2.09 11.57 8.44-1.44 7.08-2.41l-7.14 14.53L6.91 17z"></path></g><g id="SvgjsG1349"><path d="M10.47 8.65l-1.08 1.55 3.81 2.67A0.94 0.94 0 0 0 14.52 12.64 0.94 0.94 0 0 0 14.29 11.33l-3.82-2.68z m-7.96-3.91l0.46 0.1-0.05 0.53 0.54-0.01 0 0.53 0.54-0.03 0.04 0.53L4.57 6.32l0.06 0.52 0.53-0.09 0.09 0.53 0.53-0.1 0.09 0.53 0.53-0.09 0.09 0.52 0.53-0.09 0.09 0.53 0.52-0.1 0.09 0.53 0.53-0.1 0.09 0.53 0.53-0.09 0.09 0.53L10.03 8.35 1.95 2.69l-0.01 0.01a5.67 5.67 0 0 0 0.57 2.04"></path></g><g id="SvgjsG1348"><path d="M9.35 5.61c-0.3 0.43-1.02 0.61-1.52 0.26l-5.08 7.26c-0.72 1.03-2.13 0.05-1.4-0.99L6.42 4.89c-0.49-0.35-0.66-1.03-0.25-1.6L8.97-0.71c0.24-0.35 0.75-0.01 0.49 0.37l-2.07 2.96 0.42 0.29L9.9-0.07c0.22-0.32 0.72 0 0.47 0.35l-2.08 2.97 0.44 0.3L10.81 0.57C11.05 0.24 11.53 0.56 11.27 0.92l-2.07 2.96 0.43 0.3L11.71 1.21c0.23-0.33 0.73 0 0.48 0.35l-2.84 4.05zM15.29 5.11l-7.9 11.27c-0.7 1.01-2.1 0.01-1.4-0.99L9.12 10.92l-0.75-0.53L13.13 3.6c1.11-1.58 3.26-0.07 2.16 1.51z"></path></g><g id="SvgjsG1354"><use xlink:href="#SvgjsG1348" transform="translate(0, 0) scale(0.9)" fill="rgba(55, 59, 62, 1)"></use><use xlink:href="#SvgjsG1349" transform="translate(0, 38.7) scale(0.9)" fill="rgba(55, 59, 62, 1)"></use><use xlink:href="#SvgjsG1350" transform="translate(0, 77.4) scale(0.9)" fill="rgba(55, 59, 62, 1)"></use><use xlink:href="#SvgjsG1348" transform="translate(0, 116.10000000000001) scale(0.9)" fill="rgba(55, 59, 62, 1)"></use><use xlink:href="#SvgjsG1348" transform="translate(0, 154.8) scale(0.9)" fill="rgba(55, 59, 62, 1)"></use><use xlink:href="#SvgjsG1349" transform="translate(0, 193.5) scale(0.9)" fill="rgba(55, 59, 62, 1)"></use><use xlink:href="#SvgjsG1348" transform="translate(0, 232.20000000000002) scale(0.9)" fill="rgba(55, 59, 62, 1)"></use><use xlink:href="#SvgjsG1351" transform="translate(0, 270.90000000000003) scale(0.9)" fill="rgba(55, 59, 62, 1)"></use><use xlink:href="#SvgjsG1350" transform="translate(0, 309.6) scale(0.9)" fill="rgba(55, 59, 62, 1)"></use><use xlink:href="#SvgjsG1351" transform="translate(0, 348.3) scale(0.9)" fill="rgba(55, 59, 62, 1)"></use><use xlink:href="#SvgjsG1350" transform="translate(38.7, 0) scale(0.9)" fill="rgba(55, 59, 62, 1)"></use><use xlink:href="#SvgjsG1348" transform="translate(38.7, 38.7) scale(0.9)" fill="rgba(55, 59, 62, 1)"></use><use xlink:href="#SvgjsG1350" transform="translate(38.7, 77.4) scale(0.9)" fill="rgba(55, 59, 62, 1)"></use><use xlink:href="#SvgjsG1352" transform="translate(38.7, 116.10000000000001) scale(0.9)" fill="rgba(55, 59, 62, 1)"></use><use xlink:href="#SvgjsG1348" transform="translate(38.7, 154.8) scale(0.9)" fill="rgba(55, 59, 62, 1)"></use><use xlink:href="#SvgjsG1350" transform="translate(38.7, 193.5) scale(0.9)" fill="rgba(55, 59, 62, 1)"></use><use xlink:href="#SvgjsG1351" transform="translate(38.7, 232.20000000000002) scale(0.9)" fill="rgba(55, 59, 62, 1)"></use><use xlink:href="#SvgjsG1349" transform="translate(38.7, 270.90000000000003) scale(0.9)" fill="rgba(55, 59, 62, 1)"></use><use xlink:href="#SvgjsG1352" transform="translate(38.7, 309.6) scale(0.9)" fill="rgba(55, 59, 62, 1)"></use><use xlink:href="#SvgjsG1353" transform="translate(38.7, 348.3) scale(0.9)" fill="rgba(55, 59, 62, 1)"></use><use xlink:href="#SvgjsG1351" transform="translate(77.4, 0) scale(0.9)" fill="rgba(55, 59, 62, 1)"></use><use xlink:href="#SvgjsG1348" transform="translate(77.4, 38.7) scale(0.9)" fill="rgba(55, 59, 62, 1)"></use><use xlink:href="#SvgjsG1351" transform="translate(77.4, 77.4) scale(0.9)" fill="rgba(55, 59, 62, 1)"></use><use xlink:href="#SvgjsG1351" transform="translate(77.4, 116.10000000000001) scale(0.9)" fill="rgba(55, 59, 62, 1)"></use><use xlink:href="#SvgjsG1348" transform="translate(77.4, 154.8) scale(0.9)" fill="rgba(55, 59, 62, 1)"></use><use xlink:href="#SvgjsG1350" transform="translate(77.4, 193.5) scale(0.9)" fill="rgba(55, 59, 62, 1)"></use><use xlink:href="#SvgjsG1353" transform="translate(77.4, 232.20000000000002) scale(0.9)" fill="rgba(55, 59, 62, 1)"></use><use xlink:href="#SvgjsG1350" transform="translate(77.4, 270.90000000000003) scale(0.9)" fill="rgba(55, 59, 62, 1)"></use><use xlink:href="#SvgjsG1353" transform="translate(77.4, 309.6) scale(0.9)" fill="rgba(55, 59, 62, 1)"></use><use xlink:href="#SvgjsG1351" transform="translate(77.4, 348.3) scale(0.9)" fill="rgba(55, 59, 62, 1)"></use><use xlink:href="#SvgjsG1352" transform="translate(116.10000000000001, 0) scale(0.9)" fill="rgba(55, 59, 62, 1)"></use><use xlink:href="#SvgjsG1351" transform="translate(116.10000000000001, 38.7) scale(0.9)" fill="rgba(55, 59, 62, 1)"></use><use xlink:href="#SvgjsG1352" transform="translate(116.10000000000001, 77.4) scale(0.9)" fill="rgba(55, 59, 62, 1)"></use><use xlink:href="#SvgjsG1351" transform="translate(116.10000000000001, 116.10000000000001) scale(0.9)" fill="rgba(55, 59, 62, 1)"></use><use xlink:href="#SvgjsG1353" transform="translate(116.10000000000001, 154.8) scale(0.9)" fill="rgba(55, 59, 62, 1)"></use><use xlink:href="#SvgjsG1349" transform="translate(116.10000000000001, 193.5) scale(0.9)" fill="rgba(55, 59, 62, 1)"></use><use xlink:href="#SvgjsG1353" transform="translate(116.10000000000001, 232.20000000000002) scale(0.9)" fill="rgba(55, 59, 62, 1)"></use><use xlink:href="#SvgjsG1348" transform="translate(116.10000000000001, 270.90000000000003) scale(0.9)" fill="rgba(55, 59, 62, 1)"></use><use xlink:href="#SvgjsG1350" transform="translate(116.10000000000001, 309.6) scale(0.9)" fill="rgba(55, 59, 62, 1)"></use><use xlink:href="#SvgjsG1352" transform="translate(116.10000000000001, 348.3) scale(0.9)" fill="rgba(55, 59, 62, 1)"></use><use xlink:href="#SvgjsG1350" transform="translate(154.8, 0) scale(0.9)" fill="rgba(55, 59, 62, 1)"></use><use xlink:href="#SvgjsG1351" transform="translate(154.8, 38.7) scale(0.9)" fill="rgba(55, 59, 62, 1)"></use><use xlink:href="#SvgjsG1353" transform="translate(154.8, 77.4) scale(0.9)" fill="rgba(55, 59, 62, 1)"></use><use xlink:href="#SvgjsG1348" transform="translate(154.8, 116.10000000000001) scale(0.9)" fill="rgba(55, 59, 62, 1)"></use><use xlink:href="#SvgjsG1349" transform="translate(154.8, 154.8) scale(0.9)" fill="rgba(55, 59, 62, 1)"></use><use xlink:href="#SvgjsG1348" transform="translate(154.8, 193.5) scale(0.9)" fill="rgba(55, 59, 62, 1)"></use><use xlink:href="#SvgjsG1350" transform="translate(154.8, 232.20000000000002) scale(0.9)" fill="rgba(55, 59, 62, 1)"></use><use xlink:href="#SvgjsG1353" transform="translate(154.8, 270.90000000000003) scale(0.9)" fill="rgba(55, 59, 62, 1)"></use><use xlink:href="#SvgjsG1349" transform="translate(154.8, 309.6) scale(0.9)" fill="rgba(55, 59, 62, 1)"></use><use xlink:href="#SvgjsG1351" transform="translate(154.8, 348.3) scale(0.9)" fill="rgba(55, 59, 62, 1)"></use><use xlink:href="#SvgjsG1349" transform="translate(193.5, 0) scale(0.9)" fill="rgba(55, 59, 62, 1)"></use><use xlink:href="#SvgjsG1351" transform="translate(193.5, 38.7) scale(0.9)" fill="rgba(55, 59, 62, 1)"></use><use xlink:href="#SvgjsG1352" transform="translate(193.5, 77.4) scale(0.9)" fill="rgba(55, 59, 62, 1)"></use><use xlink:href="#SvgjsG1353" transform="translate(193.5, 116.10000000000001) scale(0.9)" fill="rgba(55, 59, 62, 1)"></use><use xlink:href="#SvgjsG1353" transform="translate(193.5, 154.8) scale(0.9)" fill="rgba(55, 59, 62, 1)"></use><use xlink:href="#SvgjsG1349" transform="translate(193.5, 193.5) scale(0.9)" fill="rgba(55, 59, 62, 1)"></use><use xlink:href="#SvgjsG1348" transform="translate(193.5, 232.20000000000002) scale(0.9)" fill="rgba(55, 59, 62, 1)"></use><use xlink:href="#SvgjsG1351" transform="translate(193.5, 270.90000000000003) scale(0.9)" fill="rgba(55, 59, 62, 1)"></use><use xlink:href="#SvgjsG1352" transform="translate(193.5, 309.6) scale(0.9)" fill="rgba(55, 59, 62, 1)"></use><use xlink:href="#SvgjsG1353" transform="translate(193.5, 348.3) scale(0.9)" fill="rgba(55, 59, 62, 1)"></use><use xlink:href="#SvgjsG1351" transform="translate(232.20000000000002, 0) scale(0.9)" fill="rgba(55, 59, 62, 1)"></use><use xlink:href="#SvgjsG1348" transform="translate(232.20000000000002, 38.7) scale(0.9)" fill="rgba(55, 59, 62, 1)"></use><use xlink:href="#SvgjsG1353" transform="translate(232.20000000000002, 77.4) scale(0.9)" fill="rgba(55, 59, 62, 1)"></use><use xlink:href="#SvgjsG1348" transform="translate(232.20000000000002, 116.10000000000001) scale(0.9)" fill="rgba(55, 59, 62, 1)"></use><use xlink:href="#SvgjsG1348" transform="translate(232.20000000000002, 154.8) scale(0.9)" fill="rgba(55, 59, 62, 1)"></use><use xlink:href="#SvgjsG1348" transform="translate(232.20000000000002, 193.5) scale(0.9)" fill="rgba(55, 59, 62, 1)"></use><use xlink:href="#SvgjsG1353" transform="translate(232.20000000000002, 232.20000000000002) scale(0.9)" fill="rgba(55, 59, 62, 1)"></use><use xlink:href="#SvgjsG1352" transform="translate(232.20000000000002, 270.90000000000003) scale(0.9)" fill="rgba(55, 59, 62, 1)"></use><use xlink:href="#SvgjsG1348" transform="translate(232.20000000000002, 309.6) scale(0.9)" fill="rgba(55, 59, 62, 1)"></use><use xlink:href="#SvgjsG1353" transform="translate(232.20000000000002, 348.3) scale(0.9)" fill="rgba(55, 59, 62, 1)"></use><use xlink:href="#SvgjsG1350" transform="translate(270.90000000000003, 0) scale(0.9)" fill="rgba(55, 59, 62, 1)"></use><use xlink:href="#SvgjsG1348" transform="translate(270.90000000000003, 38.7) scale(0.9)" fill="rgba(55, 59, 62, 1)"></use><use xlink:href="#SvgjsG1353" transform="translate(270.90000000000003, 77.4) scale(0.9)" fill="rgba(55, 59, 62, 1)"></use><use xlink:href="#SvgjsG1352" transform="translate(270.90000000000003, 116.10000000000001) scale(0.9)" fill="rgba(55, 59, 62, 1)"></use><use xlink:href="#SvgjsG1353" transform="translate(270.90000000000003, 154.8) scale(0.9)" fill="rgba(55, 59, 62, 1)"></use><use xlink:href="#SvgjsG1348" transform="translate(270.90000000000003, 193.5) scale(0.9)" fill="rgba(55, 59, 62, 1)"></use><use xlink:href="#SvgjsG1352" transform="translate(270.90000000000003, 232.20000000000002) scale(0.9)" fill="rgba(55, 59, 62, 1)"></use><use xlink:href="#SvgjsG1351" transform="translate(270.90000000000003, 270.90000000000003) scale(0.9)" fill="rgba(55, 59, 62, 1)"></use><use xlink:href="#SvgjsG1349" transform="translate(270.90000000000003, 309.6) scale(0.9)" fill="rgba(55, 59, 62, 1)"></use><use xlink:href="#SvgjsG1350" transform="translate(270.90000000000003, 348.3) scale(0.9)" fill="rgba(55, 59, 62, 1)"></use><use xlink:href="#SvgjsG1352" transform="translate(309.6, 0) scale(0.9)" fill="rgba(55, 59, 62, 1)"></use><use xlink:href="#SvgjsG1351" transform="translate(309.6, 38.7) scale(0.9)" fill="rgba(55, 59, 62, 1)"></use><use xlink:href="#SvgjsG1353" transform="translate(309.6, 77.4) scale(0.9)" fill="rgba(55, 59, 62, 1)"></use><use xlink:href="#SvgjsG1352" transform="translate(309.6, 116.10000000000001) scale(0.9)" fill="rgba(55, 59, 62, 1)"></use><use xlink:href="#SvgjsG1350" transform="translate(309.6, 154.8) scale(0.9)" fill="rgba(55, 59, 62, 1)"></use><use xlink:href="#SvgjsG1348" transform="translate(309.6, 193.5) scale(0.9)" fill="rgba(55, 59, 62, 1)"></use><use xlink:href="#SvgjsG1349" transform="translate(309.6, 232.20000000000002) scale(0.9)" fill="rgba(55, 59, 62, 1)"></use><use xlink:href="#SvgjsG1348" transform="translate(309.6, 270.90000000000003) scale(0.9)" fill="rgba(55, 59, 62, 1)"></use><use xlink:href="#SvgjsG1349" transform="translate(309.6, 309.6) scale(0.9)" fill="rgba(55, 59, 62, 1)"></use><use xlink:href="#SvgjsG1349" transform="translate(309.6, 348.3) scale(0.9)" fill="rgba(55, 59, 62, 1)"></use><use xlink:href="#SvgjsG1353" transform="translate(348.3, 0) scale(0.9)" fill="rgba(55, 59, 62, 1)"></use><use xlink:href="#SvgjsG1348" transform="translate(348.3, 38.7) scale(0.9)" fill="rgba(55, 59, 62, 1)"></use><use xlink:href="#SvgjsG1350" transform="translate(348.3, 77.4) scale(0.9)" fill="rgba(55, 59, 62, 1)"></use><use xlink:href="#SvgjsG1353" transform="translate(348.3, 116.10000000000001) scale(0.9)" fill="rgba(55, 59, 62, 1)"></use><use xlink:href="#SvgjsG1353" transform="translate(348.3, 154.8) scale(0.9)" fill="rgba(55, 59, 62, 1)"></use><use xlink:href="#SvgjsG1349" transform="translate(348.3, 193.5) scale(0.9)" fill="rgba(55, 59, 62, 1)"></use><use xlink:href="#SvgjsG1348" transform="translate(348.3, 232.20000000000002) scale(0.9)" fill="rgba(55, 59, 62, 1)"></use><use xlink:href="#SvgjsG1348" transform="translate(348.3, 270.90000000000003) scale(0.9)" fill="rgba(55, 59, 62, 1)"></use><use xlink:href="#SvgjsG1350" transform="translate(348.3, 309.6) scale(0.9)" fill="rgba(55, 59, 62, 1)"></use><use xlink:href="#SvgjsG1350" transform="translate(348.3, 348.3) scale(0.9)" fill="rgba(55, 59, 62, 1)"></use></g></defs></svg>